<svg id="Layer_1" data-name="Layer 1" xmlns="http://www.w3.org/2000/svg" viewBox="0 0 960.52 1365.21"><defs><style>.cls-1{fill:#ff6003;}.cls-2{fill:#ec5351;}.cls-3{fill:#fff;}.cls-4{fill:#c6003b;}.cls-5{fill:#ff6759;}.cls-6{fill:#f95642;}.cls-7{fill:#f64c3c;}.cls-8{fill:#f24a47;}.cls-9{fill:#fe802d;}.cls-10{fill:#c32950;}.cls-11,.cls-12,.cls-14{fill:none;}.cls-11,.cls-12{stroke:#000;stroke-width:0.5px;}.cls-11{stroke-linecap:round;stroke-linejoin:round;}.cls-12,.cls-14{stroke-miterlimit:10;}.cls-13{fill:#009245;}.cls-14{stroke:#009245;}</style></defs><title>HackTheCityLogo</title><path class="cls-1" d="M845.44,153.32c-0.17,2-.37,4.1-0.62,6.13A142.64,142.64,0,0,0,793.57,192a172.83,172.83,0,0,0-44.7-51.66,143.72,143.72,0,0,1,71,.54C828.58,144.62,837.16,148.77,845.44,153.32Z" transform="translate(-104.34 15.63)"/><path class="cls-2" d="M865,342.66A143.15,143.15,0,0,0,802.23,396c0-1.82.08-3.6,0.08-5.43a228.29,228.29,0,0,0-3.56-40.44c2.28-4.72,4.31-9.57,6.13-14.5,3.15-.17,6.34-0.25,9.53-0.25A178.81,178.81,0,0,1,865,342.66Z" transform="translate(-104.34 15.63)"/><path class="cls-2" d="M802.31,390.59c0,1.82,0,3.6-.08,5.43-1.08,1.7-2.15,3.4-3.19,5.14a141.77,141.77,0,0,1-19-20.55,172.18,172.18,0,0,0,18.73-30.45A228.29,228.29,0,0,1,802.31,390.59Z" transform="translate(-104.34 15.63)"/><path class="cls-2" d="M804.88,335.66c-1.82,4.93-3.85,9.78-6.13,14.5q-1.18-7-2.86-13.8C798.88,336,801.86,335.82,804.88,335.66Z" transform="translate(-104.34 15.63)"/><path class="cls-2" d="M795.89,336.36q1.68,6.84,2.86,13.8A172.18,172.18,0,0,1,780,380.61a141.36,141.36,0,0,1-20.22-36.71A178.91,178.91,0,0,1,795.89,336.36Z" transform="translate(-104.34 15.63)"/><path class="cls-2" d="M780,380.61a141.77,141.77,0,0,0,19,20.55,140.76,140.76,0,0,0-10.23,21.38c-1.82,0-3.65.08-5.51,0.08-2.2,0-4.35,0-6.5-.12a267.84,267.84,0,0,0-6.09-30.78C774,388.15,777.08,384.42,780,380.61Z" transform="translate(-104.34 15.63)"/><path class="cls-1" d="M793.57,192a143,143,0,0,0-36.79,61.07,231.57,231.57,0,0,0-81.08-68.24,142.85,142.85,0,0,1,73.17-44.5A172.83,172.83,0,0,1,793.57,192Z" transform="translate(-104.34 15.63)"/><path class="cls-3" d="M788.81,422.54c3.85-.17,7.66-0.46,11.39-0.91A226.69,226.69,0,0,1,780.31,489a139.3,139.3,0,0,1-.87-15.62A141.82,141.82,0,0,1,788.81,422.54Z" transform="translate(-104.34 15.63)"/><path class="cls-2" d="M783.3,422.62c1.86,0,3.69,0,5.51-.08a141.82,141.82,0,0,0-9.36,50.83,139.3,139.3,0,0,0,.87,15.62c-1,2-1.95,4.06-2.94,6a282,282,0,0,0,2.07-34.18,278.79,278.79,0,0,0-2.65-38.36C778.95,422.58,781.1,422.62,783.3,422.62Z" transform="translate(-104.34 15.63)"/><path class="cls-2" d="M779.44,460.86A282,282,0,0,1,777.37,495,231.48,231.48,0,0,1,659.55,603.75,179.22,179.22,0,0,1,648.4,447.56a170.71,170.71,0,0,0,93.88-30.91,143.91,143.91,0,0,0,34.51,5.84A278.79,278.79,0,0,1,779.44,460.86Z" transform="translate(-104.34 15.63)"/><path class="cls-2" d="M780,380.61c-2.94,3.81-6,7.54-9.32,11.1a272.58,272.58,0,0,0-16.36-45.95c1.78-.66,3.65-1.28,5.47-1.86A141.36,141.36,0,0,0,780,380.61Z" transform="translate(-104.34 15.63)"/><path class="cls-2" d="M770.7,391.71a267.84,267.84,0,0,1,6.09,30.78,143.91,143.91,0,0,1-34.51-5.84A171.55,171.55,0,0,0,770.7,391.71Z" transform="translate(-104.34 15.63)"/><path class="cls-2" d="M770.7,391.71a171.55,171.55,0,0,1-28.42,24.94A143.06,143.06,0,0,1,688.8,387a178.57,178.57,0,0,1,65.54-41.26A272.58,272.58,0,0,1,770.7,391.71Z" transform="translate(-104.34 15.63)"/><path class="cls-1" d="M759.81,343.9c-1.82.58-3.69,1.2-5.47,1.86a275.88,275.88,0,0,0-46-69.77c1.53,0,3.07.08,4.6,0.08a134,134,0,0,0,40-6.09A143.41,143.41,0,0,0,759.81,343.9Z" transform="translate(-104.34 15.63)"/><path class="cls-1" d="M756.78,253.09c-0.66,2.32-1.33,4.64-1.86,7A139.38,139.38,0,0,1,665.39,198a144.41,144.41,0,0,1,10.32-13.17A231.57,231.57,0,0,1,756.78,253.09Z" transform="translate(-104.34 15.63)"/><path class="cls-1" d="M754.92,260.13c-0.83,3.23-1.49,6.55-2,9.86a134,134,0,0,1-40,6.09c-1.53,0-3.07,0-4.6-.08A275.79,275.79,0,0,0,650,227a142.88,142.88,0,0,1,15.41-29A139.38,139.38,0,0,0,754.92,260.13Z" transform="translate(-104.34 15.63)"/><path class="cls-4" d="M659.55,603.75A231.48,231.48,0,0,0,777.37,495,275.1,275.1,0,0,1,701.51,653,178.72,178.72,0,0,1,659.55,603.75Z" transform="translate(-104.34 15.63)"/><path class="cls-5" d="M708.31,276a275.88,275.88,0,0,1,46,69.77A178.57,178.57,0,0,0,688.8,387a143,143,0,0,1-48.72-107.64,140.14,140.14,0,0,1,2-23.74A132.05,132.05,0,0,0,708.31,276Z" transform="translate(-104.34 15.63)"/><path class="cls-5" d="M650,227a275.79,275.79,0,0,1,58.33,49,132.05,132.05,0,0,1-66.25-20.34A138,138,0,0,1,650,227Z" transform="translate(-104.34 15.63)"/><path class="cls-4" d="M701.51,653A275.58,275.58,0,0,1,606,717,308.43,308.43,0,0,1,428.2,570.73a230.62,230.62,0,0,0,231.35,33A178.72,178.72,0,0,0,701.51,653Z" transform="translate(-104.34 15.63)"/><path class="cls-2" d="M688.8,387a143.06,143.06,0,0,0,53.49,29.62,170.71,170.71,0,0,1-93.88,30.91A178.64,178.64,0,0,1,688.8,387Z" transform="translate(-104.34 15.63)"/><path class="cls-5" d="M688.8,387a178.64,178.64,0,0,0-40.39,60.53c-1.49,0-2.94,0-4.43,0a170.41,170.41,0,0,1-67.2-13.67,217.18,217.18,0,0,0,15.41-234.37,0.67,0.67,0,0,1,.37.12,133.78,133.78,0,0,0,49.51,56,140.14,140.14,0,0,0-2,23.74A143,143,0,0,0,688.8,387Z" transform="translate(-104.34 15.63)"/><path class="cls-6" d="M702.05,10.68a139.11,139.11,0,0,0-56.76,93.88H644a171,171,0,0,0-61.15,11.23A133,133,0,0,1,702.05,10.68Z" transform="translate(-104.34 15.63)"/><path class="cls-3" d="M675.7,184.85A144.41,144.41,0,0,0,665.39,198a137.39,137.39,0,0,1-11.6-22.83A215.6,215.6,0,0,1,675.7,184.85Z" transform="translate(-104.34 15.63)"/><path class="cls-6" d="M653.79,175.2A137.39,137.39,0,0,0,665.39,198,142.88,142.88,0,0,0,650,227a271.76,271.76,0,0,0-57.42-27.34,131.91,131.91,0,0,1-11.43-39.28A228.57,228.57,0,0,1,653.79,175.2Z" transform="translate(-104.34 15.63)"/><path class="cls-5" d="M644,447.6c1.49,0,2.94,0,4.43,0a179.22,179.22,0,0,0,11.14,156.19,230.62,230.62,0,0,1-231.35-33A306.56,306.56,0,0,1,406.86,522a216.66,216.66,0,0,0,169.91-88A170.41,170.41,0,0,0,644,447.6Z" transform="translate(-104.34 15.63)"/><path class="cls-6" d="M644,104.56h1.33a139.26,139.26,0,0,0-1.28,16.2,304.46,304.46,0,0,0-64,18.81,132.3,132.3,0,0,1,2.78-23.78A171,171,0,0,1,644,104.56Z" transform="translate(-104.34 15.63)"/><path class="cls-6" d="M644,123.78a138.64,138.64,0,0,0,9.82,51.41,228.57,228.57,0,0,0-72.67-14.79A131.38,131.38,0,0,1,580,143.17c0-1.2,0-2.4,0-3.6a304.46,304.46,0,0,1,64-18.81C644,121.75,644,122.79,644,123.78Z" transform="translate(-104.34 15.63)"/><path class="cls-5" d="M650,227a138,138,0,0,0-7.91,28.63,133.78,133.78,0,0,1-49.51-56A271.76,271.76,0,0,1,650,227Z" transform="translate(-104.34 15.63)"/><path class="cls-7" d="M576.77,433.93a216.66,216.66,0,0,1-169.91,88,306.76,306.76,0,0,1-16.07-98.4,302.23,302.23,0,0,1,3.85-48.51,140.76,140.76,0,0,0,6.5-15.41A145.31,145.31,0,0,0,473.48,257.1a178.93,178.93,0,0,0-1,19A171.57,171.57,0,0,0,576.77,433.93Z" transform="translate(-104.34 15.63)"/><path class="cls-8" d="M606,717a274.52,274.52,0,0,1-102.33,19.64c-152.34,0-275.84-123.5-275.84-275.8,0-3.15,0-6.3.17-9.4a150.43,150.43,0,0,0,16.9,3.27A216.84,216.84,0,0,0,382,521.14a231.38,231.38,0,0,0,46.19,49.59A308.43,308.43,0,0,0,606,717Z" transform="translate(-104.34 15.63)"/><path class="cls-7" d="M475.51,232.83a152.29,152.29,0,0,1-.83,15.74c-0.5,2.82-.87,5.63-1.2,8.53a145.31,145.31,0,0,1-72.34,102.54,142.46,142.46,0,0,0,8.29-41.76A306.27,306.27,0,0,1,474.19,213,148.59,148.59,0,0,1,475.51,232.83Z" transform="translate(-104.34 15.63)"/><path class="cls-7" d="M468.22,187.25a147.54,147.54,0,0,1,6,25.77,306.27,306.27,0,0,0-64.76,104.86c0.17-2.4.21-4.81,0.21-7.21a144.75,144.75,0,0,0-15.91-66.12v0a232.65,232.65,0,0,1,67.9-56.3s0,0,.08,0C463.87,187.83,466,187.54,468.22,187.25Z" transform="translate(-104.34 15.63)"/><path class="cls-7" d="M467.52,185.14c-1.95,1-3.89,2-5.8,3.07,0,0,0,0-.08,0a272.55,272.55,0,0,0-75,22.79A99.35,99.35,0,0,0,365.18,91.8,145.54,145.54,0,0,1,467.52,185.14Z" transform="translate(-104.34 15.63)"/><path class="cls-7" d="M461.63,188.21a232.65,232.65,0,0,0-67.9,56.3,143.19,143.19,0,0,0-14-22.08A91.19,91.19,0,0,0,386.65,211,272.55,272.55,0,0,1,461.63,188.21Z" transform="translate(-104.34 15.63)"/><path class="cls-9" d="M428.2,570.73A231.38,231.38,0,0,1,382,521.14c6.59,0.62,13.3.91,20.09,0.91,1.62,0,3.19,0,4.76-.08A306.56,306.56,0,0,0,428.2,570.73Z" transform="translate(-104.34 15.63)"/><path class="cls-9" d="M409.64,310.67c0,2.4,0,4.81-.21,7.21a301.29,301.29,0,0,0-12.47,44,144.16,144.16,0,0,1-55.1,15.78,229.22,229.22,0,0,1,51.87-133.16A144.75,144.75,0,0,1,409.64,310.67Z" transform="translate(-104.34 15.63)"/><path class="cls-9" d="M406.86,522c-1.57.08-3.15,0.08-4.76,0.08-6.79,0-13.51-.29-20.09-0.91a229.52,229.52,0,0,1-36.91-89.65,145.83,145.83,0,0,0,49.55-56.43,302.23,302.23,0,0,0-3.85,48.51A306.76,306.76,0,0,0,406.86,522Z" transform="translate(-104.34 15.63)"/><path class="cls-9" d="M409.43,317.88a142.46,142.46,0,0,1-8.29,41.76c-1.37.83-2.78,1.57-4.18,2.28A301.29,301.29,0,0,1,409.43,317.88Z" transform="translate(-104.34 15.63)"/><path class="cls-9" d="M397,361.92c1.41-.7,2.82-1.45,4.18-2.28a140.76,140.76,0,0,1-6.5,15.41C395.3,370.66,396.09,366.27,397,361.92Z" transform="translate(-104.34 15.63)"/><path class="cls-9" d="M397,361.92c-0.87,4.35-1.66,8.74-2.32,13.13a145.83,145.83,0,0,1-49.55,56.43,233.45,233.45,0,0,1-3.6-40.89c0-4.31.12-8.62,0.37-12.88A144.16,144.16,0,0,0,397,361.92Z" transform="translate(-104.34 15.63)"/><path class="cls-8" d="M393.73,244.51v0a229.22,229.22,0,0,0-51.87,133.16c-3.85.29-7.75,0.46-11.68,0.46a144.64,144.64,0,0,1-80.79-24.53,277.49,277.49,0,0,1,16.82-33.23,96.29,96.29,0,0,0,24.94-35.46,277.82,277.82,0,0,1,19.22-20.88,99.11,99.11,0,0,0,69.35-41.64A143.19,143.19,0,0,1,393.73,244.51Z" transform="translate(-104.34 15.63)"/><path class="cls-8" d="M375.13,216.71q2.36,2.8,4.6,5.72a99.11,99.11,0,0,1-69.35,41.64A276.66,276.66,0,0,1,375.13,216.71Z" transform="translate(-104.34 15.63)"/><path class="cls-10" d="M264.3,165.38a145,145,0,0,1,110.83,51.33,276.66,276.66,0,0,0-64.76,47.35,96.12,96.12,0,0,1-12.06.75c-0.46,0-1,0-1.41,0a92.48,92.48,0,0,0,1.41-16.36,96.83,96.83,0,0,0-46.11-82.53C256.18,165.54,260.24,165.38,264.3,165.38Z" transform="translate(-104.34 15.63)"/><path class="cls-8" d="M345.09,431.48A229.52,229.52,0,0,0,382,521.14a216.84,216.84,0,0,1-137.13-66.41A150.55,150.55,0,0,0,264.3,456,144.54,144.54,0,0,0,345.09,431.48Z" transform="translate(-104.34 15.63)"/><path class="cls-8" d="M341.86,377.71c-0.25,4.27-.37,8.58-0.37,12.88a233.45,233.45,0,0,0,3.6,40.89A144.54,144.54,0,0,1,264.3,456a150.55,150.55,0,0,1-19.43-1.28,216.59,216.59,0,0,1-16-18.77,274.47,274.47,0,0,1,20.47-82.32,144.64,144.64,0,0,0,80.79,24.53C334.11,378.16,338,378,341.86,377.71Z" transform="translate(-104.34 15.63)"/><path class="cls-10" d="M310.37,264.07a277.82,277.82,0,0,0-19.22,20.88,92.4,92.4,0,0,0,5.76-20.18c0.46,0,1,0,1.41,0A96.12,96.12,0,0,0,310.37,264.07Z" transform="translate(-104.34 15.63)"/><path class="cls-8" d="M228.92,436a216.59,216.59,0,0,0,16,18.77,150.43,150.43,0,0,1-16.9-3.27C228.13,446.23,228.47,441.1,228.92,436Z" transform="translate(-104.34 15.63)"/><path class="cls-11" d="M461.72,188.21c1.91-1.08,3.85-2.07,5.8-3.07a230,230,0,0,1,67-21.92,228.66,228.66,0,0,1,29.87-2.9c2.49-.08,5-0.12,7.5-0.12,3.11,0,6.17,0,9.24.21a228.57,228.57,0,0,1,72.67,14.79,215.6,215.6,0,0,1,21.92,9.65,231.57,231.57,0,0,1,81.08,68.24c2.07,2.73,4.06,5.55,6,8.41,0.87,1.28,1.74,2.57,2.57,3.85a228.25,228.25,0,0,1,30.58,71q1.68,6.84,2.86,13.8a228.29,228.29,0,0,1,3.56,40.44c0,1.82,0,3.6-.08,5.43,0,2.53-.12,5.1-0.29,7.62-0.33,6.09-.91,12.06-1.74,18A226.69,226.69,0,0,1,780.31,489c-1,2-1.95,4.06-2.94,6A230.39,230.39,0,0,1,341.49,390.59c0-4.31.12-8.62,0.37-12.88a229.22,229.22,0,0,1,51.87-133.16" transform="translate(-104.34 15.63)"/><path class="cls-11" d="M393.73,244.51a232.65,232.65,0,0,1,67.9-56.3" transform="translate(-104.34 15.63)"/><path class="cls-11" d="M592.18,199.56A217.27,217.27,0,0,1,406.86,522c-1.57.08-3.15,0.08-4.76,0.08-6.79,0-13.51-.29-20.09-0.91a217.48,217.48,0,0,1-193.52-256,217.85,217.85,0,0,1,44.16-96.33c2.49-3.11,5.05-6.17,7.79-9.16A216.7,216.7,0,0,1,362.49,91.14c0.54-.08,1.08-0.21,1.62-0.29a217.59,217.59,0,0,1,177.61,47.52q7.21,6,13.88,12.68c3,3,6,6.09,8.78,9.28A216.07,216.07,0,0,1,592.18,199.56Z" transform="translate(-104.34 15.63)"/><path class="cls-11" d="M252.2,165.88a96.83,96.83,0,0,1,46.11,82.53,97.49,97.49,0,0,1-7.17,36.54,96.85,96.85,0,1,1-91.27-133.36c0.5,0,1,0,1.57,0,2.69,0,5.39.12,8,.37a95.54,95.54,0,0,1,30.95,7.79A93.39,93.39,0,0,1,252.2,165.88Z" transform="translate(-104.34 15.63)"/><path class="cls-11" d="M393.73,244.55a144.75,144.75,0,0,1,15.91,66.12c0,2.4,0,4.81-.21,7.21a142.46,142.46,0,0,1-8.29,41.76,140.76,140.76,0,0,1-6.5,15.41A145.48,145.48,0,0,1,264.3,456,146.56,146.56,0,0,1,228,451.45,145.39,145.39,0,0,1,119,310.67c0-3.65.12-7.25,0.41-10.85a145.27,145.27,0,0,1,73.91-116c2.2-1.2,4.39-2.36,6.67-3.48a142.08,142.08,0,0,1,32.65-11.52,138.23,138.23,0,0,1,19.56-3c4-.33,8-0.5,12.1-0.5a145,145,0,0,1,110.83,51.33q2.36,2.8,4.6,5.72a143.19,143.19,0,0,1,14,22.08v0Z" transform="translate(-104.34 15.63)"/><path class="cls-11" d="M776.79,422.49a278.79,278.79,0,0,1,2.65,38.36A282,282,0,0,1,777.37,495,275.7,275.7,0,0,1,503.64,736.66c-152.34,0-275.84-123.5-275.84-275.8,0-3.15,0-6.3.17-9.4,0.17-5.22.5-10.36,1-15.49a274.47,274.47,0,0,1,20.47-82.32,277.49,277.49,0,0,1,16.82-33.23,272.69,272.69,0,0,1,24.94-35.46,278.82,278.82,0,0,1,84-68.24c3.77-2,7.62-3.89,11.52-5.72a272.55,272.55,0,0,1,75-22.79s0,0,.08,0c2.15-.37,4.31-0.66,6.5-1a292.55,292.55,0,0,1,30.37-2.2c1.7,0,3.36,0,5.05,0h0.58a275.93,275.93,0,0,1,88,14.54,0.67,0.67,0,0,1,.37.12A271.76,271.76,0,0,1,650,227,277.12,277.12,0,0,1,754.34,345.77a272.58,272.58,0,0,1,16.36,45.95A267.84,267.84,0,0,1,776.79,422.49Z" transform="translate(-104.34 15.63)"/><path class="cls-11" d="M887,180.54c5.63,4.31,11.06,8.87,16.32,13.59a306.82,306.82,0,0,1,94.5,158.47,311,311,0,0,1,8.24,71A307.9,307.9,0,0,1,854.81,688.52" transform="translate(-104.34 15.63)"/><path class="cls-11" d="M854.72,688.52A307.46,307.46,0,0,1,390.79,423.57a302.23,302.23,0,0,1,3.85-48.51c0.66-4.39,1.45-8.78,2.32-13.13a301.29,301.29,0,0,1,12.47-44A306.27,306.27,0,0,1,474.19,213c6-6.42,12.26-12.55,18.81-18.39,3.65-3.31,7.42-6.5,11.23-9.61a296.72,296.72,0,0,1,30.29-21.79Q544.76,156.7,555.6,151q11.93-6.28,24.44-11.48a304.46,304.46,0,0,1,64-18.81,309.62,309.62,0,0,1,54.4-4.81c2.44,0,4.93,0,7.37.08a305.3,305.3,0,0,1,114.06,24.86c8.74,3.73,17.32,7.87,25.6,12.43,2.24,1.2,4.39,2.4,6.59,3.69a302.12,302.12,0,0,1,34.88,23.49" transform="translate(-104.34 15.63)"/><path class="cls-11" d="M993.22,511.49c0,0.91,0,1.86,0,2.78A178.91,178.91,0,0,1,854.81,688.52a0.06,0.06,0,0,1-.08,0A178.88,178.88,0,0,1,754.34,345.77c1.78-.66,3.65-1.28,5.47-1.86a178.91,178.91,0,0,1,36.09-7.54c3-.33,6-0.54,9-0.7s6.34-.25,9.53-0.25A178.81,178.81,0,0,1,865,342.66a176.51,176.51,0,0,1,37.58,16A178.81,178.81,0,0,1,993.22,511.49Z" transform="translate(-104.34 15.63)"/><path class="cls-11" d="M1017.21,367.23A142.53,142.53,0,0,1,939.28,614.9a140.18,140.18,0,0,1-17.28,1A142.54,142.54,0,0,1,780.31,489a139.3,139.3,0,0,1-.87-15.62A143.21,143.21,0,0,1,799,401.16c1-1.74,2.11-3.44,3.19-5.14A142.33,142.33,0,0,1,917,330.89c1.7,0,3.36-.08,5.05-0.08a142,142,0,0,1,75.78,21.79A140.21,140.21,0,0,1,1017.21,367.23Z" transform="translate(-104.34 15.63)"/><path class="cls-11" d="M919.27,152.95a143.27,143.27,0,0,1,97.94,214.28,145,145,0,0,1-13.46,18.93,143,143,0,0,1-201.81,17.48c-1-.83-1.95-1.66-2.9-2.49A143,143,0,0,1,750.86,294a143.57,143.57,0,0,1,2-24c0.54-3.31,1.2-6.63,2-9.86,0.54-2.4,1.2-4.72,1.86-7a144,144,0,0,1,88-93.63c2.36-.87,4.76-1.7,7.21-2.44l3.85-1.12A145,145,0,0,1,919.27,152.95Z" transform="translate(-104.34 15.63)"/><path class="cls-11" d="M901,197.82A143.33,143.33,0,0,1,917,330.89a139.87,139.87,0,0,1-14.38,27.76,143.34,143.34,0,0,1-81.12,58.83,138.69,138.69,0,0,1-21.25,4.14c-3.73.46-7.54,0.75-11.39,0.91-1.82,0-3.65.08-5.51,0.08-2.2,0-4.35,0-6.5-.12a143.24,143.24,0,0,1-136.72-143.1,140.14,140.14,0,0,1,2-23.74A138,138,0,0,1,650,227a142.88,142.88,0,0,1,15.41-29,144.41,144.41,0,0,1,10.32-13.17,143.35,143.35,0,0,1,144.14-44,139.13,139.13,0,0,1,25.77,9.53c3.52,1.66,6.92,3.48,10.27,5.47a144.23,144.23,0,0,1,31,24.61,0,0,0,0,0,0,0A144.8,144.8,0,0,1,901,197.82Z" transform="translate(-104.34 15.63)"/><path class="cls-11" d="M702.05,10.68A139.19,139.19,0,0,1,903.28,194.13c-0.75,1.24-1.49,2.49-2.24,3.69A138.95,138.95,0,0,1,783.17,263q-5.9,0-11.68-.5c-2.94-.25-5.84-0.58-8.74-1q-4-.56-7.83-1.37A139.38,139.38,0,0,1,665.39,198,139.1,139.1,0,0,1,644,123.78c0-1,0-2,0-3A138.85,138.85,0,0,1,702.05,10.68Z" transform="translate(-104.34 15.63)"/><path class="cls-11" d="M702.05,10.68c3.56-.25,7.21-0.41,10.85-0.41A132.89,132.89,0,0,1,845.82,143.17c0,2.44-.08,4.85-0.21,7.25,0,1-.08,1.95-0.17,2.9-0.17,2-.37,4.1-0.62,6.13a133,133,0,0,1-73.33,103c-2,1-4.1,1.95-6.17,2.86-4.06,1.74-8.2,3.27-12.43,4.64a134,134,0,0,1-40,6.09c-1.53,0-3.07,0-4.6-.08a132.05,132.05,0,0,1-66.25-20.34,133.78,133.78,0,0,1-49.51-56A133.53,133.53,0,0,1,580,143.17c0-1.2,0-2.4,0-3.6A132.76,132.76,0,0,1,702.05,10.68Z" transform="translate(-104.34 15.63)"/><path class="cls-12" d="M814.74,259.38c0.5,5.47.79,11.06,0.79,16.7a171.23,171.23,0,0,1-10.65,59.58c-1.82,4.93-3.85,9.78-6.13,14.5A172.18,172.18,0,0,1,780,380.61c-2.94,3.81-6,7.54-9.32,11.1a171.72,171.72,0,0,1-122.3,55.85c-1.49,0-2.94,0-4.43,0A171.4,171.4,0,0,1,472.45,276.08a178.93,178.93,0,0,1,1-19c0.33-2.9.7-5.72,1.2-8.53A169.25,169.25,0,0,1,493,194.63q2.61-4.91,5.59-9.57a171.55,171.55,0,0,1,43.13-46.69A170.77,170.77,0,0,1,644,104.56h1.33a171.6,171.6,0,0,1,165,129.1A175.7,175.7,0,0,1,814.74,259.38Z" transform="translate(-104.34 15.63)"/><path class="cls-12" d="M365.18,91.8a145.54,145.54,0,0,1,102.33,93.34c0.21,0.7.46,1.41,0.7,2.11a144.26,144.26,0,0,1,7.29,45.57,152.29,152.29,0,0,1-.83,15.74c-0.33,2.86-.7,5.72-1.2,8.53a145.31,145.31,0,0,1-72.34,102.54c-1.37.83-2.78,1.57-4.18,2.28a144.16,144.16,0,0,1-55.1,15.78c-3.85.29-7.75,0.46-11.68,0.46a144.64,144.64,0,0,1-80.79-24.53,141.07,141.07,0,0,1-17.11-13.42A145.36,145.36,0,0,1,362.49,91.14l2.65,0.62" transform="translate(-104.34 15.63)"/><path class="cls-12" d="M365.18,91.8A99.35,99.35,0,0,1,386.65,211a91.19,91.19,0,0,1-6.92,11.43,99.11,99.11,0,0,1-69.35,41.64,96.12,96.12,0,0,1-12.06.75c-0.46,0-1,0-1.41,0a99.21,99.21,0,0,1-88.83-57.67A97,97,0,0,1,200,180.38c-0.5-3.31-.83-6.71-1-10.11-0.08-1.62-.12-3.27-0.12-4.89a94.87,94.87,0,0,1,1-13.8A99.39,99.39,0,0,1,364.11,90.85c0.33,0.29.7,0.58,1,.91Z" transform="translate(-104.34 15.63)"/><rect class="cls-13" x="182.57" y="800.64" width="386.18" height="75.86"/><polygon class="cls-13" points="488.97 901.1 409.23 1364.71 345.95 1364.36 266.18 900.74 488.97 901.1"/><rect class="cls-14" x="182.57" y="800.64" width="386.18" height="75.86"/><line class="cls-14" x1="266.18" y1="900.74" x2="488.97" y2="901.1"/><line class="cls-14" x1="345.95" y1="1364.36" x2="266.18" y2="900.74"/><line class="cls-14" x1="409.23" y1="1364.71" x2="488.97" y2="901.1"/><line class="cls-14" x1="345.95" y1="1364.36" x2="409.23" y2="1364.71"/></svg>